<svg width="24" height="24" viewBox="0 0 24 24" fill="none" xmlns="http://www.w3.org/2000/svg">
<rect width="24" height="24" rx="12" fill="#E8E8E8"/>
<path d="M9.14765 7.75392L8.97071 7.9307L9.14756 8.10756L13.0396 11.9995L9.1483 15.8915L8.97155 16.0683L9.14831 16.2451L9.94331 17.0401L10.1201 17.2168L10.2969 17.04L14.6306 12.7056C14.6307 12.7055 14.6308 12.7054 14.6309 12.7053C14.724 12.6127 14.7979 12.5026 14.8483 12.3814C14.8988 12.26 14.9248 12.1299 14.9248 11.9984C14.9248 11.8669 14.8988 11.7368 14.8483 11.6154C14.7979 11.4942 14.724 11.3841 14.6308 11.2915C14.6307 11.2914 14.6307 11.2913 14.6306 11.2912L10.2968 6.95897L10.1201 6.78234L9.9434 6.95892L9.14765 7.75392Z" fill="#EE6284" stroke="#EE6284" stroke-width="0.5"/>
</svg>
