<svg width="24" height="24" viewBox="0 0 24 24" fill="none" xmlns="http://www.w3.org/2000/svg">
<rect width="24" height="24" rx="12" fill="#FFC8C7"/>
<path d="M9.14765 7.75441L8.97071 7.93119L9.14756 8.10805L13.0396 12L9.1483 15.892L8.97155 16.0688L9.14831 16.2455L9.94331 17.0405L10.1201 17.2173L10.2969 17.0405L14.6306 12.7061C14.6307 12.706 14.6308 12.7059 14.6309 12.7058C14.724 12.6132 14.7979 12.5031 14.8483 12.3819C14.8988 12.2605 14.9248 12.1304 14.9248 11.9989C14.9248 11.8674 14.8988 11.7373 14.8483 11.6159C14.7979 11.4947 14.724 11.3846 14.6309 11.292C14.6308 11.2919 14.6307 11.2918 14.6306 11.2917L10.2968 6.95946L10.1201 6.78283L9.9434 6.95941L9.14765 7.75441Z" fill="#EE6284" stroke="#EE6284" stroke-width="0.5"/>
</svg>
